<svg width="16" height="16" viewBox="0 0 16 16" fill="none" xmlns="http://www.w3.org/2000/svg">
<path d="M6.10573 7.74634C6.08573 7.74634 6.0724 7.74634 6.0524 7.74634C6.01906 7.73967 5.9724 7.73967 5.9324 7.74634C3.99906 7.68634 2.53906 6.16634 2.53906 4.29301C2.53906 2.38634 4.0924 0.833008 5.99906 0.833008C7.90573 0.833008 9.45906 2.38634 9.45906 4.29301C9.4524 6.16634 7.98573 7.68634 6.12573 7.74634C6.11906 7.74634 6.1124 7.74634 6.10573 7.74634ZM5.99906 1.83301C4.64573 1.83301 3.53906 2.93967 3.53906 4.29301C3.53906 5.62634 4.57906 6.69967 5.90573 6.74634C5.94573 6.73967 6.0324 6.73967 6.11906 6.74634C7.42573 6.68634 8.4524 5.61301 8.45906 4.29301C8.45906 2.93967 7.3524 1.83301 5.99906 1.83301Z" fill="#687180"/>
<path d="M11.0256 7.83366C11.0056 7.83366 10.9856 7.83366 10.9656 7.82699C10.6923 7.85366 10.4123 7.66033 10.3856 7.38699C10.3589 7.11366 10.5256 6.86699 10.7989 6.83366C10.8789 6.82699 10.9656 6.82699 11.0389 6.82699C12.0123 6.77366 12.7723 5.97366 12.7723 4.99366C12.7723 3.98033 11.9523 3.16033 10.9389 3.16033C10.6656 3.16699 10.4389 2.94033 10.4389 2.66699C10.4389 2.39366 10.6656 2.16699 10.9389 2.16699C12.4989 2.16699 13.7723 3.44033 13.7723 5.00033C13.7723 6.53366 12.5723 7.77366 11.0456 7.83366C11.0389 7.83366 11.0323 7.83366 11.0256 7.83366Z" fill="#687180"/>
<path d="M6.11698 15.0337C4.81031 15.0337 3.49698 14.7003 2.50365 14.0337C1.57698 13.4203 1.07031 12.5803 1.07031 11.667C1.07031 10.7537 1.57698 9.90699 2.50365 9.28699C4.50365 7.96033 7.74365 7.96033 9.73031 9.28699C10.6503 9.90033 11.1636 10.7403 11.1636 11.6537C11.1636 12.567 10.657 13.4137 9.73031 14.0337C8.73031 14.7003 7.42365 15.0337 6.11698 15.0337ZM3.05698 10.127C2.41698 10.5537 2.07031 11.1003 2.07031 11.6737C2.07031 12.2403 2.42365 12.787 3.05698 13.207C4.71698 14.3203 7.51698 14.3203 9.17698 13.207C9.81698 12.7803 10.1636 12.2337 10.1636 11.6603C10.1636 11.0937 9.81031 10.547 9.17698 10.127C7.51698 9.02033 4.71698 9.02033 3.05698 10.127Z" fill="#687180"/>
<path d="M12.2229 13.8333C11.9895 13.8333 11.7829 13.6733 11.7362 13.4333C11.6829 13.16 11.8562 12.9 12.1229 12.84C12.5429 12.7533 12.9295 12.5867 13.2295 12.3533C13.6095 12.0667 13.8162 11.7067 13.8162 11.3267C13.8162 10.9467 13.6095 10.5867 13.2362 10.3067C12.9429 10.08 12.5762 9.92001 12.1429 9.82001C11.8762 9.76001 11.7029 9.49335 11.7629 9.22001C11.8229 8.95335 12.0895 8.78001 12.3629 8.84001C12.9362 8.96668 13.4362 9.19335 13.8429 9.50668C14.4629 9.97335 14.8162 10.6333 14.8162 11.3267C14.8162 12.02 14.4562 12.68 13.8362 13.1533C13.4229 13.4733 12.9029 13.7067 12.3295 13.82C12.2895 13.8333 12.2562 13.8333 12.2229 13.8333Z" fill="#687180"/>
</svg>
