<svg width="16" height="16" viewBox="0 0 16 16" fill="none" xmlns="http://www.w3.org/2000/svg">
<path d="M8.66927 9.83301H1.33594C1.0626 9.83301 0.835938 9.60634 0.835938 9.33301V3.99967C0.835938 2.25301 2.25594 0.833008 4.0026 0.833008H10.0026C10.2759 0.833008 10.5026 1.05967 10.5026 1.33301V7.99967C10.5026 9.01301 9.6826 9.83301 8.66927 9.83301ZM1.83594 8.83301H8.66927C9.12927 8.83301 9.5026 8.45967 9.5026 7.99967V1.83301H4.0026C2.80927 1.83301 1.83594 2.80634 1.83594 3.99967V8.83301Z" fill="#1A73E8"/>
<path d="M12.6693 13.833H12.0026C11.7293 13.833 11.5026 13.6063 11.5026 13.333C11.5026 12.873 11.1293 12.4997 10.6693 12.4997C10.2093 12.4997 9.83594 12.873 9.83594 13.333C9.83594 13.6063 9.60927 13.833 9.33594 13.833H6.66927C6.39594 13.833 6.16927 13.6063 6.16927 13.333C6.16927 12.873 5.79594 12.4997 5.33594 12.4997C4.87594 12.4997 4.5026 12.873 4.5026 13.333C4.5026 13.6063 4.27594 13.833 4.0026 13.833H3.33594C1.95594 13.833 0.835938 12.713 0.835938 11.333V9.33301C0.835938 9.05967 1.0626 8.83301 1.33594 8.83301H8.66927C9.12927 8.83301 9.5026 8.45967 9.5026 7.99967V3.33301C9.5026 3.05967 9.72927 2.83301 10.0026 2.83301H11.2293C11.8893 2.83301 12.4959 3.18635 12.8226 3.75968L13.9626 5.75301C14.0493 5.90634 14.0493 6.09968 13.9626 6.25301C13.8759 6.40634 13.7093 6.49967 13.5293 6.49967H12.6693C12.5759 6.49967 12.5026 6.57301 12.5026 6.66634V8.66634C12.5026 8.75967 12.5759 8.83301 12.6693 8.83301H14.6693C14.9426 8.83301 15.1693 9.05967 15.1693 9.33301V11.333C15.1693 12.713 14.0493 13.833 12.6693 13.833ZM12.4359 12.833H12.6693C13.4959 12.833 14.1693 12.1597 14.1693 11.333V9.83301H12.6693C12.0293 9.83301 11.5026 9.30634 11.5026 8.66634V6.66634C11.5026 6.02634 12.0226 5.49967 12.6693 5.49967L11.9559 4.25301C11.8093 3.99301 11.5293 3.83301 11.2293 3.83301H10.5026V7.99967C10.5026 9.01301 9.6826 9.83301 8.66927 9.83301H1.83594V11.333C1.83594 12.1597 2.50927 12.833 3.33594 12.833H3.56927C3.78927 12.0663 4.49594 11.4997 5.33594 11.4997C6.17594 11.4997 6.8826 12.0663 7.1026 12.833H8.90926C9.12926 12.0663 9.83594 11.4997 10.6759 11.4997C11.5159 11.4997 12.2159 12.0663 12.4359 12.833Z" fill="#1A73E8"/>
<path d="M5.33333 15.1667C4.32 15.1667 3.5 14.3467 3.5 13.3333C3.5 12.32 4.32 11.5 5.33333 11.5C6.34667 11.5 7.16667 12.32 7.16667 13.3333C7.16667 14.3467 6.34667 15.1667 5.33333 15.1667ZM5.33333 12.5C4.87333 12.5 4.5 12.8733 4.5 13.3333C4.5 13.7933 4.87333 14.1667 5.33333 14.1667C5.79333 14.1667 6.16667 13.7933 6.16667 13.3333C6.16667 12.8733 5.79333 12.5 5.33333 12.5Z" fill="#1A73E8"/>
<path d="M10.6693 15.1667C9.65594 15.1667 8.83594 14.3467 8.83594 13.3333C8.83594 12.32 9.65594 11.5 10.6693 11.5C11.6826 11.5 12.5026 12.32 12.5026 13.3333C12.5026 14.3467 11.6826 15.1667 10.6693 15.1667ZM10.6693 12.5C10.2093 12.5 9.83594 12.8733 9.83594 13.3333C9.83594 13.7933 10.2093 14.1667 10.6693 14.1667C11.1293 14.1667 11.5026 13.7933 11.5026 13.3333C11.5026 12.8733 11.1293 12.5 10.6693 12.5Z" fill="#1A73E8"/>
<path d="M14.6667 9.83333H12.6667C12.0267 9.83333 11.5 9.30667 11.5 8.66667V6.66667C11.5 6.02667 12.0267 5.5 12.6667 5.5H13.5267C13.7067 5.5 13.8733 5.59334 13.96 5.75334L15.1 7.75334C15.14 7.82667 15.1667 7.91333 15.1667 8V9.33333C15.1667 9.60667 14.94 9.83333 14.6667 9.83333ZM12.6667 6.5C12.5733 6.5 12.5 6.57333 12.5 6.66667V8.66667C12.5 8.76 12.5733 8.83333 12.6667 8.83333H14.1667V8.13334L13.2333 6.5H12.6667Z" fill="#1A73E8"/>
</svg>
