<svg width="16" height="16" viewBox="0 0 16 16" fill="none" xmlns="http://www.w3.org/2000/svg">
<path d="M8 10.5C6.62 10.5 5.5 9.38 5.5 8C5.5 6.62 6.62 5.5 8 5.5C9.38 5.5 10.5 6.62 10.5 8C10.5 9.38 9.38 10.5 8 10.5ZM8 6.5C7.17333 6.5 6.5 7.17333 6.5 8C6.5 8.82667 7.17333 9.5 8 9.5C8.82667 9.5 9.5 8.82667 9.5 8C9.5 7.17333 8.82667 6.5 8 6.5Z" fill="#1A73E8"/>
<path d="M10.1426 14.7932C10.0026 14.7932 9.8626 14.7732 9.7226 14.7399C9.30927 14.6265 8.9626 14.3665 8.7426 13.9999L8.6626 13.8665C8.26927 13.1865 7.72927 13.1865 7.33594 13.8665L7.2626 13.9932C7.0426 14.3665 6.69594 14.6332 6.2826 14.7399C5.8626 14.8532 5.42927 14.7932 5.0626 14.5732L3.91594 13.9132C3.50927 13.6799 3.21594 13.2999 3.08927 12.8399C2.96927 12.3799 3.02927 11.9065 3.2626 11.4999C3.45594 11.1599 3.50927 10.8532 3.39594 10.6599C3.2826 10.4665 2.99594 10.3532 2.6026 10.3532C1.62927 10.3532 0.835938 9.55987 0.835938 8.58653V7.4132C0.835938 6.43987 1.62927 5.64653 2.6026 5.64653C2.99594 5.64653 3.2826 5.5332 3.39594 5.33987C3.50927 5.14653 3.4626 4.83987 3.2626 4.49987C3.02927 4.0932 2.96927 3.6132 3.08927 3.15987C3.20927 2.69987 3.5026 2.31987 3.91594 2.08653L5.06927 1.42653C5.8226 0.979865 6.81594 1.23987 7.26927 2.00653L7.34927 2.13987C7.7426 2.81987 8.2826 2.81987 8.67594 2.13987L8.74927 2.0132C9.2026 1.23987 10.1959 0.979865 10.9559 1.4332L12.1026 2.0932C12.5093 2.32653 12.8026 2.70653 12.9293 3.16653C13.0493 3.62653 12.9893 4.09987 12.7559 4.50653C12.5626 4.84653 12.5093 5.1532 12.6226 5.34653C12.7359 5.53987 13.0226 5.6532 13.4159 5.6532C14.3893 5.6532 15.1826 6.44653 15.1826 7.41987V8.5932C15.1826 9.56653 14.3893 10.3599 13.4159 10.3599C13.0226 10.3599 12.7359 10.4732 12.6226 10.6665C12.5093 10.8599 12.5559 11.1665 12.7559 11.5065C12.9893 11.9132 13.0559 12.3932 12.9293 12.8465C12.8093 13.3065 12.5159 13.6865 12.1026 13.9199L10.9493 14.5799C10.6959 14.7199 10.4226 14.7932 10.1426 14.7932ZM8.0026 12.3265C8.59594 12.3265 9.14927 12.6999 9.52927 13.3599L9.6026 13.4865C9.6826 13.6265 9.81594 13.7265 9.97594 13.7665C10.1359 13.8065 10.2959 13.7865 10.4293 13.7065L11.5826 13.0399C11.7559 12.9399 11.8893 12.7732 11.9426 12.5732C11.9959 12.3732 11.9693 12.1665 11.8693 11.9932C11.4893 11.3399 11.4426 10.6665 11.7359 10.1532C12.0293 9.63986 12.6359 9.34653 13.3959 9.34653C13.8226 9.34653 14.1626 9.00653 14.1626 8.57987V7.40653C14.1626 6.98653 13.8226 6.63987 13.3959 6.63987C12.6359 6.63987 12.0293 6.34653 11.7359 5.8332C11.4426 5.31987 11.4893 4.64653 11.8693 3.9932C11.9693 3.81987 11.9959 3.6132 11.9426 3.4132C11.8893 3.2132 11.7626 3.0532 11.5893 2.94653L10.4359 2.28653C10.1493 2.1132 9.76927 2.2132 9.59594 2.50653L9.5226 2.6332C9.1426 3.2932 8.58927 3.66653 7.99594 3.66653C7.4026 3.66653 6.84927 3.2932 6.46927 2.6332L6.39594 2.49987C6.22927 2.21987 5.85594 2.11987 5.56927 2.28653L4.41594 2.9532C4.2426 3.0532 4.10927 3.21987 4.05594 3.41987C4.0026 3.61987 4.02927 3.82653 4.12927 3.99987C4.50927 4.6532 4.55594 5.32653 4.2626 5.83987C3.96927 6.3532 3.3626 6.64653 2.6026 6.64653C2.17594 6.64653 1.83594 6.98653 1.83594 7.4132V8.58653C1.83594 9.00653 2.17594 9.3532 2.6026 9.3532C3.3626 9.3532 3.96927 9.64653 4.2626 10.1599C4.55594 10.6732 4.50927 11.3465 4.12927 11.9999C4.02927 12.1732 4.0026 12.3799 4.05594 12.5799C4.10927 12.7799 4.23594 12.9399 4.40927 13.0465L5.5626 13.7065C5.7026 13.7932 5.86927 13.8132 6.0226 13.7732C6.1826 13.7332 6.31594 13.6265 6.4026 13.4865L6.47594 13.3599C6.85594 12.7065 7.40927 12.3265 8.0026 12.3265Z" fill="#1A73E8"/>
</svg>
