<svg width="16" height="16" viewBox="0 0 16 16" fill="none" xmlns="http://www.w3.org/2000/svg">
<path d="M3.67448 4.33333C3.30781 4.33333 3.00781 4.03333 3.00781 3.66667C3.00781 3.3 3.30115 3 3.67448 3H3.68115C4.04781 3 4.34781 3.3 4.34781 3.66667C4.34781 4.03333 4.04781 4.33333 3.67448 4.33333Z" fill="#1A73E8"/>
<path d="M12.3385 13.0003C11.9719 13.0003 11.6719 12.7003 11.6719 12.3337C11.6719 11.967 11.9652 11.667 12.3385 11.667H12.3452C12.7119 11.667 13.0119 11.967 13.0119 12.3337C13.0119 12.7003 12.7119 13.0003 12.3385 13.0003Z" fill="#1A73E8"/>
<path d="M3.64583 6.49967C2.08583 6.49967 0.8125 5.22634 0.8125 3.66634C0.8125 2.10634 2.08583 0.833008 3.64583 0.833008C5.20583 0.833008 6.47917 2.10634 6.47917 3.66634C6.47917 5.22634 5.2125 6.49967 3.64583 6.49967ZM3.64583 1.83301C2.6325 1.83301 1.8125 2.65301 1.8125 3.66634C1.8125 4.67967 2.6325 5.49967 3.64583 5.49967C4.65917 5.49967 5.47917 4.67967 5.47917 3.66634C5.47917 2.65301 4.65917 1.83301 3.64583 1.83301Z" fill="#1A73E8"/>
<path d="M13.3099 15.1667H11.3099C10.2966 15.1667 9.47656 14.3467 9.47656 13.3333V11.3333C9.47656 10.32 10.2966 9.5 11.3099 9.5H13.3099C14.3232 9.5 15.1432 10.32 15.1432 11.3333V13.3333C15.1432 14.3467 14.3232 15.1667 13.3099 15.1667ZM11.3099 10.5C10.8499 10.5 10.4766 10.8733 10.4766 11.3333V13.3333C10.4766 13.7933 10.8499 14.1667 11.3099 14.1667H13.3099C13.7699 14.1667 14.1432 13.7933 14.1432 13.3333V11.3333C14.1432 10.8733 13.7699 10.5 13.3099 10.5H11.3099Z" fill="#1A73E8"/>
<path d="M8.00354 13.1663H6.21687C5.44354 13.1663 4.77021 12.6997 4.50354 11.9797C4.23021 11.2597 4.43021 10.4663 5.01021 9.95301L10.3369 5.29301C10.6569 5.01301 10.6635 4.63301 10.5702 4.37301C10.4702 4.11301 10.2169 3.83301 9.79021 3.83301H8.00354C7.73021 3.83301 7.50354 3.60634 7.50354 3.33301C7.50354 3.05967 7.73021 2.83301 8.00354 2.83301H9.79021C10.5635 2.83301 11.2369 3.29967 11.5035 4.01967C11.7769 4.73967 11.5769 5.53301 10.9969 6.04634L5.67021 10.7063C5.35021 10.9863 5.34354 11.3663 5.43687 11.6263C5.53687 11.8863 5.79021 12.1663 6.21687 12.1663H8.00354C8.27687 12.1663 8.50354 12.393 8.50354 12.6663C8.50354 12.9397 8.27687 13.1663 8.00354 13.1663Z" fill="#1A73E8"/>
</svg>
