<svg width="24" height="68" viewBox="0 0 24 68" fill="none" xmlns="http://www.w3.org/2000/svg">
<path d="M24 61.3335L14 55.56V67.107L24 61.3335ZM24.0098 5.3335C24.0098 2.38798 21.6219 0.000164032 18.6764 0.000164032C15.7309 0.000164032 13.3431 2.38798 13.3431 5.3335C13.3431 8.27901 15.7309 10.6668 18.6764 10.6668C21.6219 10.6668 24.0098 8.27901 24.0098 5.3335ZM15 61.3335V60.3335H5V61.3335V62.3335H15V61.3335ZM1 57.3335H2V9.3335H1H0V57.3335H1ZM5 5.3335V6.3335H18.6764V5.3335V4.3335H5V5.3335ZM1 9.3335H2C2 7.67664 3.34315 6.3335 5 6.3335V5.3335V4.3335C2.23857 4.3335 0 6.57207 0 9.3335H1ZM5 61.3335V60.3335C3.34315 60.3335 2 58.9904 2 57.3335H1H0C0 60.0949 2.23858 62.3335 5 62.3335V61.3335Z" fill="#1A73E8"/>
</svg>
