<svg width="16" height="16" viewBox="0 0 16 16" fill="none" xmlns="http://www.w3.org/2000/svg">
<path fill-rule="evenodd" clip-rule="evenodd" d="M13.6581 13.6569C16.7823 10.5327 16.7823 5.46734 13.6581 2.34315C10.5339 -0.781048 5.46855 -0.781049 2.34435 2.34315C-0.77984 5.46734 -0.77984 10.5327 2.34435 13.6569C5.46855 16.781 10.5339 16.781 13.6581 13.6569ZM6.72842 5.87868C6.4941 5.64436 6.1142 5.64437 5.87989 5.87868C5.64557 6.11299 5.64557 6.49289 5.87989 6.72721L7.15268 8L5.87989 9.27279C5.64557 9.50711 5.64557 9.88701 5.87989 10.1213C6.1142 10.3556 6.4941 10.3556 6.72842 10.1213L8.00121 8.84853L9.274 10.1213C9.50832 10.3556 9.88821 10.3556 10.1225 10.1213C10.3568 9.88701 10.3568 9.50711 10.1225 9.27279L8.84974 8L10.1225 6.72721C10.3568 6.49289 10.3568 6.11299 10.1225 5.87868C9.88821 5.64437 9.50832 5.64437 9.274 5.87868L8.00121 7.15147L6.72842 5.87868Z" fill="#F7F8F9"/>
</svg>
