<svg width="32" height="32" viewBox="0 0 32 32" fill="none" xmlns="http://www.w3.org/2000/svg">
<g opacity="0.5">
<path d="M30.6682 23.8807C30.6949 24.8807 30.4282 25.8274 29.9482 26.6407C29.6815 27.1207 29.3215 27.5607 28.9215 27.9207C28.0015 28.7741 26.7882 29.2941 25.4415 29.3341C23.4948 29.3741 21.7749 28.3741 20.8282 26.8407C20.3215 26.0541 20.0149 25.1074 20.0015 24.1074C19.9615 22.4274 20.7082 20.9074 21.9082 19.9074C22.8149 19.1607 23.9615 18.6941 25.2149 18.6674C28.1615 18.6007 30.6015 20.934 30.6682 23.8807Z" stroke="white" stroke-width="1.5" stroke-miterlimit="10" stroke-linecap="round" stroke-linejoin="round"/>
<path d="M23.2578 24.0413L24.6045 25.3213L27.3912 22.6279" stroke="white" stroke-width="1.5" stroke-linecap="round" stroke-linejoin="round"/>
<path d="M4.22656 9.91895L15.9999 16.7323L27.6932 9.9589" stroke="white" stroke-width="1.5" stroke-linecap="round" stroke-linejoin="round"/>
<path d="M16 28.8131V16.7197" stroke="white" stroke-width="1.5" stroke-linecap="round" stroke-linejoin="round"/>
<path d="M28.8141 12.226V19.7727C28.8141 19.8394 28.8142 19.8927 28.8008 19.9593C27.8675 19.146 26.6675 18.666 25.3341 18.666C24.0808 18.666 22.9208 19.106 22.0008 19.8394C20.7741 20.8127 20.0008 22.3194 20.0008 23.9994C20.0008 24.9994 20.2808 25.946 20.7741 26.746C20.8941 26.9594 21.0408 27.1594 21.2008 27.3461L18.7608 28.6927C17.2408 29.5461 14.7608 29.5461 13.2408 28.6927L6.12081 24.746C4.50748 23.8527 3.1875 21.6127 3.1875 19.7727V12.226C3.1875 10.386 4.50748 8.14605 6.12081 7.25271L13.2408 3.30602C14.7608 2.45268 17.2408 2.45268 18.7608 3.30602L25.8808 7.25271C27.4942 8.14605 28.8141 10.386 28.8141 12.226Z" stroke="white" stroke-width="1.5" stroke-linecap="round" stroke-linejoin="round"/>
</g>
</svg>
