<svg width="32" height="32" viewBox="0 0 32 32" fill="none" xmlns="http://www.w3.org/2000/svg">
<path d="M16 30.333C15.0667 30.333 14.12 29.973 13.4133 29.2664L11.1333 27.013C10.5733 26.453 9.80001 26.1463 9.01335 26.1463H8C5.24 26.1463 3 23.9197 3 21.1864V6.63965C3 3.90632 5.24 1.67969 8 1.67969H24C26.76 1.67969 29 3.90632 29 6.63965V21.1864C29 23.9197 26.76 26.1463 24 26.1463H22.9867C22.2 26.1463 21.4267 26.4664 20.8667 27.013L18.5867 29.2664C17.88 29.973 16.9333 30.333 16 30.333ZM8 3.66634C6.34667 3.66634 5 4.99964 5 6.6263V21.173C5 22.813 6.34667 24.133 8 24.133H9.01335C10.3333 24.133 11.6133 24.6663 12.5466 25.5863L14.8267 27.8397C15.48 28.4797 16.5334 28.4797 17.1867 27.8397L19.4666 25.5863C20.4 24.6663 21.68 24.133 23 24.133H24C25.6533 24.133 27 22.7997 27 21.173V6.6263C27 4.9863 25.6533 3.66634 24 3.66634H8Z" fill="#A1A3A9"/>
<path d="M15.9973 14.3334C13.7306 14.3334 11.8906 12.4934 11.8906 10.2267C11.8906 7.96006 13.7306 6.12012 15.9973 6.12012C18.264 6.12012 20.104 7.96006 20.104 10.2267C20.104 12.4934 18.264 14.3334 15.9973 14.3334ZM15.9973 8.12012C14.8373 8.12012 13.8906 9.06673 13.8906 10.2267C13.8906 11.3867 14.8373 12.3334 15.9973 12.3334C17.1573 12.3334 18.104 11.3867 18.104 10.2267C18.104 9.06673 17.1573 8.12012 15.9973 8.12012Z" fill="#A1A3A9"/>
<path d="M21.3307 21.8808C20.7841 21.8808 20.3307 21.4274 20.3307 20.8808C20.3307 19.0408 18.3841 17.5342 15.9974 17.5342C13.6107 17.5342 11.6641 19.0408 11.6641 20.8808C11.6641 21.4274 11.2107 21.8808 10.6641 21.8808C10.1174 21.8808 9.66406 21.4274 9.66406 20.8808C9.66406 17.9341 12.5041 15.5342 15.9974 15.5342C19.4907 15.5342 22.3307 17.9341 22.3307 20.8808C22.3307 21.4274 21.8774 21.8808 21.3307 21.8808Z" fill="#A1A3A9"/>
</svg>
