<svg width="32" height="32" viewBox="0 0 32 32" fill="none" xmlns="http://www.w3.org/2000/svg">
<path d="M23.6559 30.3333H10.1759C9.74928 30.3333 9.37594 30.0667 9.22927 29.68C9.0826 29.28 9.2026 28.84 9.5226 28.5733C9.8426 28.3067 10.1359 27.96 10.3493 27.5867C10.7759 26.9067 10.9893 26.1333 10.9893 25.3467C10.9893 22.96 9.04261 21.0133 6.65594 21.0133C5.66928 21.0133 4.73595 21.3466 3.94928 21.9733C3.65595 22.2133 3.2426 22.2533 2.89594 22.0933C2.54927 21.9333 2.33594 21.5734 2.33594 21.1867V15.36C2.33594 12.04 5.02926 9.34668 8.34926 9.34668H23.6559C26.9759 9.34668 29.6693 12.04 29.6693 15.36V17.28C29.6693 17.8267 29.2159 18.28 28.6693 18.28H25.9759C25.5093 18.28 25.0826 18.4534 24.7759 18.7734L24.7626 18.7867C24.3893 19.1467 24.2159 19.64 24.2559 20.1466C24.3359 21.0266 25.1759 21.7333 26.1359 21.7333H28.6693C29.2159 21.7333 29.6693 22.1867 29.6693 22.7333V24.32C29.6693 27.64 26.9759 30.3333 23.6559 30.3333ZM12.2426 28.3333H23.6559C25.8693 28.3333 27.6693 26.5333 27.6693 24.32V23.7333H26.1359C24.1226 23.7333 22.4159 22.24 22.2559 20.32C22.1493 19.2267 22.5493 18.1467 23.3493 17.36C24.0426 16.6534 24.9759 16.2667 25.9759 16.2667H27.6693V15.3467C27.6693 13.1333 25.8693 11.3333 23.6559 11.3333H8.34926C6.13593 11.3333 4.33594 13.1333 4.33594 15.3467V19.4534C5.0826 19.16 5.86927 19 6.66927 19C10.1626 19 13.0026 21.84 13.0026 25.3333C13.0026 26.3867 12.7359 27.4267 12.2426 28.3333Z" fill="white" stroke="#191F37" stroke-width="0.5"/>
<path d="M3.33594 17.547C2.78927 17.547 2.33594 17.0937 2.33594 16.547V10.4537C2.33594 8.46707 3.58927 6.667 5.44261 5.96033L16.0293 1.96033C17.1226 1.547 18.3359 1.69373 19.2826 2.3604C20.2426 3.02706 20.8026 4.10705 20.8026 5.26705V10.3337C20.8026 10.8804 20.3493 11.3337 19.8026 11.3337C19.2559 11.3337 18.8026 10.8804 18.8026 10.3337V5.26705C18.8026 4.76039 18.5626 4.2937 18.1359 4.00037C17.7093 3.70704 17.2026 3.64037 16.7226 3.82703L6.13595 7.82703C5.05595 8.24036 4.32261 9.29374 4.32261 10.4537V16.547C4.33594 17.107 3.8826 17.547 3.33594 17.547Z" fill="white" stroke="#191F37" stroke-width="0.5"/>
<path d="M26.1313 23.7332C24.118 23.7332 22.4113 22.2399 22.2513 20.3199C22.1447 19.2132 22.5447 18.1333 23.3447 17.3466C24.0247 16.6533 24.958 16.2666 25.958 16.2666H28.7313C30.0513 16.3066 31.0647 17.3465 31.0647 18.6265V21.3733C31.0647 22.6533 30.0513 23.6932 28.7713 23.7332H26.1313ZM28.7047 18.2666H25.9713C25.5047 18.2666 25.078 18.4399 24.7713 18.7599C24.3847 19.1333 24.198 19.6399 24.2513 20.1466C24.3313 21.0266 25.1713 21.7332 26.1313 21.7332H28.7447C28.918 21.7332 29.078 21.5733 29.078 21.3733V18.6265C29.078 18.4265 28.918 18.2799 28.7047 18.2666Z" fill="white" stroke="#191F37" stroke-width="0.5"/>
<path d="M18.6693 17H9.33594C8.78927 17 8.33594 16.5467 8.33594 16C8.33594 15.4533 8.78927 15 9.33594 15H18.6693C19.2159 15 19.6693 15.4533 19.6693 16C19.6693 16.5467 19.2159 17 18.6693 17Z" fill="white" stroke="#191F37" stroke-width="0.5"/>
<path d="M6.66927 31.6667C4.45594 31.6667 2.37594 30.4933 1.25594 28.5867C0.655941 27.6267 0.335938 26.4933 0.335938 25.3333C0.335938 23.3867 1.2026 21.5866 2.70927 20.3866C3.82927 19.4933 5.2426 19 6.66927 19C10.1626 19 13.0026 21.84 13.0026 25.3333C13.0026 26.4933 12.6826 27.6267 12.0826 28.6C11.7626 29.16 11.3226 29.6667 10.8159 30.0933C9.70927 31.1067 8.22927 31.6667 6.66927 31.6667ZM6.66927 21C5.6826 21 4.74927 21.3333 3.96261 21.96C2.93594 22.7733 2.33594 24.0133 2.33594 25.3333C2.33594 26.12 2.54927 26.8933 2.96261 27.56C3.74927 28.8933 5.13594 29.6667 6.66927 29.6667C7.7226 29.6667 8.73594 29.28 9.50928 28.5867C9.85594 28.2933 10.1493 27.9467 10.3626 27.5733C10.7893 26.8933 11.0026 26.12 11.0026 25.3333C11.0026 22.9467 9.05594 21 6.66927 21Z" fill="white" stroke="#191F37" stroke-width="0.5"/>
<path d="M5.90259 27.6534C5.64926 27.6534 5.39592 27.5601 5.19592 27.3601L3.87594 26.0401C3.48927 25.6535 3.48927 25.0134 3.87594 24.6267C4.2626 24.24 4.9026 24.24 5.28927 24.6267L5.92926 25.2668L8.0626 23.2934C8.4626 22.92 9.1026 22.9468 9.47593 23.3468C9.84927 23.7468 9.82261 24.3868 9.42261 24.7601L6.5826 27.3867C6.3826 27.5601 6.14259 27.6534 5.90259 27.6534Z" fill="white" stroke="#191F37" stroke-width="0.5"/>
</svg>
