<svg width="24" height="24" viewBox="0 0 24 24" fill="none" xmlns="http://www.w3.org/2000/svg">
<path d="M12 1.25C15.4232 1.25003 18.2096 4.00374 18.25 7.43555C18.25 9.56941 16.6651 11.7737 14.2061 13.9482C12.9286 15.0172 11.0691 15.0172 9.77637 13.9346C7.33327 11.7721 5.74995 9.56887 5.75 7.42676C5.79032 4.00373 8.57672 1.25 12 1.25ZM12 2.75C9.39828 2.75 7.28063 4.84284 7.25 7.43555C7.25 8.99466 8.63316 10.9194 10.7549 12.7979C11.4749 13.4007 12.5239 13.4008 13.2285 12.8115C15.3659 10.921 16.7499 8.995 16.75 7.44434C16.7193 4.84285 14.6017 2.75003 12 2.75Z" fill="#1A73E8"/>
<path d="M10.5 5C10.8797 5 11.1935 5.28215 11.2432 5.64823L11.25 5.75V9.25C11.25 9.66421 10.9142 10 10.5 10C10.1203 10 9.80651 9.71785 9.75685 9.35177L9.75 9.25V5.75C9.75 5.33579 10.0858 5 10.5 5Z" fill="#1A73E8"/>
<path d="M13.5 5C13.8797 5 14.1935 5.28215 14.2432 5.64823L14.25 5.75V9.25C14.25 9.66421 13.9142 10 13.5 10C13.1203 10 12.8065 9.71785 12.7568 9.35177L12.75 9.25V5.75C12.75 5.33579 13.0858 5 13.5 5Z" fill="#1A73E8"/>
<path d="M13.5 6.75C13.9142 6.75 14.25 7.08579 14.25 7.5C14.25 7.8797 13.9678 8.19349 13.6018 8.24315L13.5 8.25H10.5C10.0858 8.25 9.75 7.91421 9.75 7.5C9.75 7.1203 10.0322 6.80651 10.3982 6.75685L10.5 6.75H13.5Z" fill="#1A73E8"/>
<path d="M19.4466 6.67331C19.9803 6.49543 20.5669 6.58492 21.0232 6.91383C21.434 7.20985 21.6941 7.66733 21.742 8.16594L21.75 8.3335V18.3335C21.75 19.0365 21.3301 19.666 20.6931 19.9404L20.5534 19.9937L15.5534 21.6604C15.2455 21.763 14.9162 21.7777 14.6022 21.7044L14.4466 21.6604L9.07906 19.8712C9.04485 19.8598 9.00878 19.856 8.97334 19.8598L8.92094 19.8712L4.5534 21.327C4.01974 21.5049 3.43311 21.4154 2.97676 21.0865C2.56605 20.7905 2.30594 20.333 2.25803 19.8344L2.25 19.6668V9.66685C2.25 8.96382 2.66988 8.3344 3.30686 8.05994L3.4466 8.00666L6.2796 7.06234C6.67256 6.93136 7.0973 7.14373 7.22828 7.53669C7.34835 7.8969 7.17991 8.28382 6.84832 8.44669L6.75394 8.48537L3.92094 9.42969C3.83927 9.45691 3.77887 9.5235 3.75798 9.60413L3.75 9.66685V19.6668C3.75 19.7472 3.78863 19.8227 3.85382 19.8697C3.90272 19.9049 3.96208 19.9209 4.02087 19.916L4.07906 19.904L8.4466 18.4482C8.7545 18.3455 9.08382 18.3309 9.39784 18.4042L9.5534 18.4482L14.921 20.2374C14.9552 20.2488 14.9912 20.2526 15.0267 20.2488L15.0791 20.2373L20.0791 18.5707C20.1607 18.5435 20.2211 18.4769 20.242 18.3962L20.25 18.3335V8.3335C20.25 8.25315 20.2114 8.17769 20.1462 8.1307C20.0973 8.09546 20.0379 8.07946 19.9791 8.08438L19.9209 8.09634L17.666 8.84798C17.2731 8.97897 16.8483 8.7666 16.7173 8.37364C16.5973 8.01343 16.7657 7.62651 17.0973 7.46363L17.1917 7.42495L19.4466 6.67331Z" fill="#1A73E8"/>
<path d="M9 15.25C9.3797 15.25 9.69349 15.5322 9.74315 15.8982L9.75 16V19.1082C9.75 19.5224 9.41421 19.8582 9 19.8582C8.6203 19.8582 8.30651 19.576 8.25685 19.21L8.25 19.1082V16C8.25 15.5858 8.58579 15.25 9 15.25Z" fill="#1A73E8"/>
<path d="M15 15.25C15.3797 15.25 15.6935 15.5322 15.7432 15.8982L15.75 16V21C15.75 21.4142 15.4142 21.75 15 21.75C14.6203 21.75 14.3065 21.4678 14.2568 21.1018L14.25 21V16C14.25 15.5858 14.5858 15.25 15 15.25Z" fill="#1A73E8"/>
</svg>
