<svg width="24" height="24" viewBox="0 0 24 24" fill="none" xmlns="http://www.w3.org/2000/svg">
<path d="M12.4585 22.7501C12.2885 22.7501 12.1185 22.7501 11.9485 22.7401C6.34848 22.4901 1.66848 17.9801 1.27848 12.4801C0.938483 7.76011 3.66848 3.35011 8.06848 1.50011C9.31848 0.980114 9.97848 1.38011 10.2585 1.67011C10.5385 1.95011 10.9285 2.60011 10.4085 3.79011C9.94848 4.85011 9.71848 5.98011 9.72848 7.14011C9.74848 11.5701 13.4285 15.3301 17.9185 15.5101C18.5685 15.5401 19.2085 15.4901 19.8285 15.3801C21.1485 15.1401 21.6985 15.6701 21.9085 16.0101C22.1185 16.3501 22.3585 17.0801 21.5585 18.1601C19.4385 21.0601 16.0685 22.7501 12.4585 22.7501ZM2.76848 12.3701C3.10848 17.1301 7.16848 21.0301 12.0085 21.2401C15.2985 21.4001 18.4185 19.9001 20.3385 17.2801C20.4885 17.0701 20.5585 16.9201 20.5885 16.8401C20.4985 16.8301 20.3385 16.8201 20.0885 16.8701C19.3585 17.0001 18.5985 17.0501 17.8485 17.0201C12.5685 16.8101 8.24848 12.3801 8.21848 7.16011C8.21848 5.78011 8.48848 4.45011 9.03848 3.20011C9.13848 2.98011 9.15848 2.83011 9.16848 2.75011C9.07848 2.75011 8.91848 2.77011 8.65848 2.88011C4.84848 4.48011 2.48848 8.30011 2.76848 12.3701Z" fill="#374151"/>
</svg>
