<svg width="20" height="20" viewBox="0 0 20 20" fill="none" xmlns="http://www.w3.org/2000/svg">
<path d="M2.92112 2.92214C6.81728 -0.974017 13.1671 -0.974017 17.0633 2.92214C20.9594 6.8183 20.9594 13.1681 17.0633 17.0643C13.1671 20.9604 6.81728 20.9604 2.92112 17.0643C-0.975039 13.1681 -0.975039 6.8183 2.92112 2.92214ZM9.24265 13.9954C9.24265 14.4056 9.58207 14.745 9.99219 14.745C10.2043 14.745 10.3882 14.6601 10.5225 14.5258C10.6569 14.3914 10.7417 14.2076 10.7417 13.9954L10.7417 10.7427L13.9944 10.7427C14.2065 10.7427 14.3904 10.6579 14.5247 10.5235C14.6591 10.3892 14.7439 10.2053 14.7439 9.99321C14.7439 9.58309 14.4045 9.24368 13.9944 9.24368L10.7417 9.24368L10.7417 5.99099C10.7417 5.58086 10.4023 5.24145 9.99219 5.24145C9.58207 5.24145 9.24265 5.58086 9.24265 5.99099L9.24265 9.24368L5.98996 9.24368C5.57984 9.24368 5.24043 9.58309 5.24043 9.99321C5.24043 10.4033 5.57984 10.7427 5.98996 10.7427L9.24265 10.7427L9.24265 13.9954Z" fill="#1A73E8"/>
</svg>
