<svg width="24" height="24" viewBox="0 0 24 24" fill="none" xmlns="http://www.w3.org/2000/svg">
<path d="M19.001 22.7502C17.381 22.7502 15.851 21.9102 14.991 20.5302C14.531 19.8202 14.271 18.9701 14.251 18.1001C14.221 16.6401 14.8411 15.2801 15.9511 14.3601C16.7811 13.6701 17.8211 13.2802 18.8911 13.2502C20.1911 13.2402 21.361 13.6902 22.281 14.5702C23.201 15.4502 23.721 16.6302 23.741 17.9002C23.761 18.7702 23.541 19.6202 23.101 20.3702C22.861 20.7902 22.551 21.1802 22.181 21.5102C21.361 22.2802 20.261 22.7302 19.091 22.7502C19.071 22.7502 19.041 22.7502 19.001 22.7502ZM19.001 14.7502C18.981 14.7502 18.951 14.7502 18.931 14.7502C18.191 14.7702 17.491 15.0302 16.911 15.5102C16.151 16.1402 15.731 17.0702 15.751 18.0702C15.761 18.6602 15.941 19.2401 16.251 19.7301C16.861 20.7101 17.921 21.3102 19.061 21.2502C19.851 21.2302 20.6011 20.9302 21.1711 20.4002C21.4311 20.1702 21.641 19.9102 21.801 19.6302C22.101 19.1102 22.251 18.5302 22.241 17.9402C22.221 17.0702 21.871 16.2601 21.241 15.6601C20.641 15.0701 19.841 14.7502 19.001 14.7502Z" fill="#1A73E8"/>
<path d="M18.4489 19.7497C18.2589 19.7497 18.0789 19.6797 17.9289 19.5397L16.9189 18.5797C16.6189 18.2897 16.6089 17.8197 16.8989 17.5197C17.1889 17.2197 17.6589 17.2097 17.9589 17.4997L18.4489 17.9697L20.0189 16.4497C20.3189 16.1597 20.7889 16.1697 21.0789 16.4697C21.3689 16.7697 21.3589 17.2397 21.0589 17.5297L18.9689 19.5497C18.8189 19.6797 18.6289 19.7497 18.4489 19.7497Z" fill="#1A73E8"/>
<path d="M11.9974 13.2999C11.8674 13.2999 11.7374 13.2699 11.6174 13.1999L2.78741 8.0899C2.42741 7.8799 2.30739 7.41987 2.51739 7.05987C2.72739 6.69987 3.18741 6.57985 3.53741 6.78985L11.9874 11.6799L20.3874 6.81988C20.7474 6.60988 21.2074 6.7399 21.4074 7.0899C21.6174 7.4499 21.4874 7.90987 21.1374 8.11987L12.3674 13.1999C12.2574 13.2599 12.1274 13.2999 11.9974 13.2999Z" fill="#1A73E8"/>
<path d="M12 22.36C11.59 22.36 11.25 22.02 11.25 21.61V12.54C11.25 12.13 11.59 11.79 12 11.79C12.41 11.79 12.75 12.13 12.75 12.54V21.61C12.75 22.02 12.41 22.36 12 22.36Z" fill="#1A73E8"/>
<path d="M12.0028 22.7499C11.1228 22.7499 10.2428 22.5599 9.56281 22.1699L4.22281 19.2099C2.77281 18.4099 1.63281 16.4799 1.63281 14.8199V9.1599C1.63281 7.4999 2.77281 5.57994 4.22281 4.76994L9.56281 1.80992C10.9228 1.03992 13.0628 1.03992 14.4328 1.80992L19.7728 4.76994C21.2228 5.56994 22.3628 7.4999 22.3628 9.1599V14.8199C22.3628 14.9199 22.3628 14.9999 22.3428 15.0999C22.2928 15.3599 22.1028 15.5799 21.8528 15.6599C21.6028 15.7499 21.3228 15.6899 21.1128 15.5199C19.9628 14.5199 18.1828 14.4799 16.9728 15.4499C16.2028 16.0599 15.7528 16.9899 15.7528 17.9799C15.7528 18.5699 15.9128 19.1499 16.2228 19.6499C16.3028 19.7899 16.3828 19.8999 16.4728 20.0099C16.6228 20.1799 16.6828 20.4099 16.6428 20.6299C16.6028 20.8499 16.4628 21.0399 16.2628 21.1499L14.4328 22.1599C13.7528 22.5599 12.8828 22.7499 12.0028 22.7499ZM12.0028 2.74992C11.3828 2.74992 10.7528 2.87993 10.3028 3.12993L4.9628 6.08995C3.9928 6.61995 3.1528 8.0599 3.1528 9.1599V14.8199C3.1528 15.9199 4.0028 17.3599 4.9628 17.8899L10.3028 20.8499C11.2128 21.3599 12.8028 21.3599 13.7128 20.8499L14.8328 20.2299C14.4628 19.5599 14.2628 18.7799 14.2628 17.9799C14.2628 16.5199 14.9128 15.1699 16.0428 14.2699C17.4028 13.1799 19.3428 12.9499 20.8728 13.5999V9.13994C20.8728 8.03994 20.0228 6.59993 19.0628 6.06993L13.7228 3.10991C13.2528 2.87991 12.6228 2.74992 12.0028 2.74992Z" fill="#1A73E8"/>
</svg>
