<svg width="24" height="24" viewBox="0 0 24 24" fill="none" xmlns="http://www.w3.org/2000/svg">
<path d="M11.9963 22.7501C11.3263 22.7501 10.6463 22.5801 10.0463 22.2301L4.10625 18.8001C2.90625 18.1001 2.15625 16.8101 2.15625 15.4201V8.58011C2.15625 7.19011 2.90625 5.90011 4.10625 5.20011L10.0463 1.77012C11.2463 1.07012 12.7362 1.07012 13.9462 1.77012L19.8862 5.20011C21.0863 5.90011 21.8363 7.19011 21.8363 8.58011V15.4201C21.8363 16.8101 21.0863 18.1001 19.8862 18.8001L13.9462 22.2301C13.3462 22.5801 12.6663 22.7501 11.9963 22.7501ZM11.9963 2.7501C11.5863 2.7501 11.1663 2.8601 10.7963 3.0701L4.85625 6.5001C4.11625 6.9301 3.65625 7.72011 3.65625 8.58011V15.4201C3.65625 16.2701 4.11625 17.0701 4.85625 17.5001L10.7963 20.9301C11.5363 21.3601 12.4563 21.3601 13.1962 20.9301L19.1362 17.5001C19.8762 17.0701 20.3363 16.2801 20.3363 15.4201V8.58011C20.3363 7.73011 19.8762 6.9301 19.1362 6.5001L13.1962 3.0701C12.8263 2.8601 12.4062 2.7501 11.9963 2.7501Z" fill="#1A73E8"/>
<path d="M12.0019 11.7498C10.3019 11.7498 8.92188 10.3698 8.92188 8.6698C8.92188 6.9698 10.3019 5.58984 12.0019 5.58984C13.7019 5.58984 15.0819 6.9698 15.0819 8.6698C15.0819 10.3698 13.7019 11.7498 12.0019 11.7498ZM12.0019 7.08984C11.1319 7.08984 10.4219 7.7998 10.4219 8.6698C10.4219 9.5398 11.1319 10.2498 12.0019 10.2498C12.8719 10.2498 13.5819 9.5398 13.5819 8.6698C13.5819 7.7998 12.8719 7.08984 12.0019 7.08984Z" fill="#1A73E8"/>
<path d="M16 17.4103C15.59 17.4103 15.25 17.0703 15.25 16.6603C15.25 15.2803 13.79 14.1504 12 14.1504C10.21 14.1504 8.75 15.2803 8.75 16.6603C8.75 17.0703 8.41 17.4103 8 17.4103C7.59 17.4103 7.25 17.0703 7.25 16.6603C7.25 14.4503 9.38 12.6504 12 12.6504C14.62 12.6504 16.75 14.4503 16.75 16.6603C16.75 17.0703 16.41 17.4103 16 17.4103Z" fill="#1A73E8"/>
</svg>
