<svg width="12" height="13" viewBox="0 0 12 13" fill="none" xmlns="http://www.w3.org/2000/svg">
<path d="M9.40433 1.32504L9.36098 3.67168C9.35479 3.99365 9.55912 4.42087 9.81917 4.61281L11.3547 5.77684C12.3392 6.51984 12.1782 7.43001 11.0018 7.80151L9.00187 8.42687C8.66752 8.53213 8.3146 8.89744 8.22791 9.23798L7.75115 11.0583C7.37346 12.4948 6.43233 12.6372 5.65218 11.3741L4.56245 9.60948C4.36432 9.28751 3.89375 9.04604 3.52225 9.06461L1.45424 9.16987C-0.0255667 9.24417 -0.446599 8.38972 0.519299 7.26284L1.74525 5.83876C1.97434 5.57252 2.0796 5.07719 1.97434 4.74284L1.34279 2.73674C0.977482 1.56032 1.6338 0.910201 2.80402 1.29408L4.63056 1.89467C4.94014 1.99374 5.40452 1.92563 5.66457 1.73369L7.5716 0.359143C8.6056 -0.377664 9.42909 0.055752 9.40433 1.32504Z" fill="#1A73E8"/>
</svg>
