<svg width="16" height="16" viewBox="0 0 16 16" fill="none" xmlns="http://www.w3.org/2000/svg">
<path d="M8.66782 9.8335H8.00115C7.72782 9.8335 7.50115 9.60683 7.50115 9.3335C7.50115 9.06016 7.72782 8.8335 8.00115 8.8335H8.66782C9.12782 8.8335 9.50115 8.46016 9.50115 8.00016V1.8335H4.00115C3.21449 1.8335 2.49447 2.26015 2.1078 2.94682C1.97447 3.18682 1.66783 3.27351 1.42783 3.14018C1.18783 3.00684 1.10114 2.70016 1.23447 2.46016C1.79447 1.46016 2.85449 0.833496 4.00115 0.833496H10.0012C10.2745 0.833496 10.5012 1.06016 10.5012 1.3335V8.00016C10.5012 9.0135 9.68115 9.8335 8.66782 9.8335Z" fill="#687180"/>
<path d="M12.6615 13.8335H11.9948C11.7215 13.8335 11.4948 13.6068 11.4948 13.3335C11.4948 12.8735 11.1215 12.5002 10.6615 12.5002C10.2015 12.5002 9.82812 12.8735 9.82812 13.3335C9.82812 13.6068 9.60146 13.8335 9.32812 13.8335H6.66146C6.38812 13.8335 6.16146 13.6068 6.16146 13.3335C6.16146 12.8735 5.78812 12.5002 5.32812 12.5002C4.86812 12.5002 4.49479 12.8735 4.49479 13.3335C4.49479 13.6068 4.26812 13.8335 3.99479 13.8335H3.32812C1.94813 13.8335 0.828125 12.7135 0.828125 11.3335C0.828125 11.0602 1.05479 10.8335 1.32812 10.8335C1.60146 10.8335 1.82812 11.0602 1.82812 11.3335C1.82812 12.1602 2.50146 12.8335 3.32812 12.8335H3.56144C3.78144 12.0668 4.48812 11.5002 5.32812 11.5002C6.16812 11.5002 6.87481 12.0668 7.09481 12.8335H8.90145C9.12145 12.0668 9.82813 11.5002 10.6681 11.5002C11.5081 11.5002 12.2148 12.0668 12.4348 12.8335H12.6615C13.4881 12.8335 14.1615 12.1602 14.1615 11.3335V9.8335H12.6615C12.0215 9.8335 11.4948 9.30683 11.4948 8.66683V6.66683C11.4948 6.02683 12.0148 5.50016 12.6615 5.50016L11.9481 4.2535C11.8015 3.9935 11.5215 3.8335 11.2215 3.8335H10.4948V8.00016C10.4948 9.0135 9.67479 9.8335 8.66146 9.8335H7.99479C7.72146 9.8335 7.49479 9.60683 7.49479 9.3335C7.49479 9.06016 7.72146 8.8335 7.99479 8.8335H8.66146C9.12146 8.8335 9.49479 8.46016 9.49479 8.00016V3.3335C9.49479 3.06016 9.72146 2.8335 9.99479 2.8335H11.2215C11.8815 2.8335 12.4881 3.18684 12.8148 3.76017L13.9548 5.7535C14.0415 5.90683 14.0415 6.10017 13.9548 6.2535C13.8681 6.40683 13.7014 6.50016 13.5214 6.50016H12.6615C12.5681 6.50016 12.4948 6.5735 12.4948 6.66683V8.66683C12.4948 8.76016 12.5681 8.8335 12.6615 8.8335H14.6615C14.9348 8.8335 15.1615 9.06016 15.1615 9.3335V11.3335C15.1615 12.7135 14.0415 13.8335 12.6615 13.8335Z" fill="#687180"/>
<path d="M5.33333 15.1667C4.32 15.1667 3.5 14.3467 3.5 13.3333C3.5 12.32 4.32 11.5 5.33333 11.5C6.34667 11.5 7.16667 12.32 7.16667 13.3333C7.16667 14.3467 6.34667 15.1667 5.33333 15.1667ZM5.33333 12.5C4.87333 12.5 4.5 12.8733 4.5 13.3333C4.5 13.7933 4.87333 14.1667 5.33333 14.1667C5.79333 14.1667 6.16667 13.7933 6.16667 13.3333C6.16667 12.8733 5.79333 12.5 5.33333 12.5Z" fill="#687180"/>
<path d="M10.6615 15.1667C9.64813 15.1667 8.82812 14.3467 8.82812 13.3333C8.82812 12.32 9.64813 11.5 10.6615 11.5C11.6748 11.5 12.4948 12.32 12.4948 13.3333C12.4948 14.3467 11.6748 15.1667 10.6615 15.1667ZM10.6615 12.5C10.2015 12.5 9.82812 12.8733 9.82812 13.3333C9.82812 13.7933 10.2015 14.1667 10.6615 14.1667C11.1215 14.1667 11.4948 13.7933 11.4948 13.3333C11.4948 12.8733 11.1215 12.5 10.6615 12.5Z" fill="#687180"/>
<path d="M14.6667 9.83333H12.6667C12.0267 9.83333 11.5 9.30667 11.5 8.66667V6.66667C11.5 6.02667 12.0267 5.5 12.6667 5.5H13.5267C13.7067 5.5 13.8733 5.59334 13.96 5.75334L15.1 7.75334C15.14 7.82667 15.1667 7.91333 15.1667 8V9.33333C15.1667 9.60667 14.94 9.83333 14.6667 9.83333ZM12.6667 6.5C12.5733 6.5 12.5 6.57333 12.5 6.66667V8.66667C12.5 8.76 12.5733 8.83333 12.6667 8.83333H14.1667V8.13334L13.2333 6.5H12.6667Z" fill="#687180"/>
<path d="M5.32812 5.8335H1.32812C1.05479 5.8335 0.828125 5.60683 0.828125 5.3335C0.828125 5.06016 1.05479 4.8335 1.32812 4.8335H5.32812C5.60146 4.8335 5.82812 5.06016 5.82812 5.3335C5.82812 5.60683 5.60146 5.8335 5.32812 5.8335Z" fill="#687180"/>
<path d="M3.99479 7.8335H1.32812C1.05479 7.8335 0.828125 7.60683 0.828125 7.3335C0.828125 7.06016 1.05479 6.8335 1.32812 6.8335H3.99479C4.26813 6.8335 4.49479 7.06016 4.49479 7.3335C4.49479 7.60683 4.26813 7.8335 3.99479 7.8335Z" fill="#687180"/>
<path d="M2.66146 9.8335H1.32812C1.05479 9.8335 0.828125 9.60683 0.828125 9.3335C0.828125 9.06016 1.05479 8.8335 1.32812 8.8335H2.66146C2.93479 8.8335 3.16146 9.06016 3.16146 9.3335C3.16146 9.60683 2.93479 9.8335 2.66146 9.8335Z" fill="#687180"/>
</svg>
