<svg width="16" height="16" viewBox="0 0 16 16" fill="none" xmlns="http://www.w3.org/2000/svg">
<path d="M8.66927 9.83366H1.33594C1.0626 9.83366 0.835938 9.60699 0.835938 9.33366V5.08032C0.835938 4.86699 0.969264 4.68031 1.1626 4.60697C1.3626 4.53364 1.58261 4.59366 1.71594 4.75366C2.11594 5.227 2.69593 5.49365 3.32926 5.49365C3.34926 5.49365 3.36261 5.49365 3.38261 5.49365C3.91594 5.48032 4.40926 5.28034 4.78259 4.927C4.95593 4.78034 5.09593 4.60699 5.2026 4.41366C5.40926 4.06032 5.50927 3.67365 5.5026 3.28031C5.48927 2.66698 5.22262 2.10698 4.76929 1.70032C4.60929 1.56032 4.55594 1.34031 4.62927 1.14697C4.70261 0.953639 4.88928 0.820312 5.09595 0.820312H10.0026C10.2759 0.820312 10.5026 1.04698 10.5026 1.32031V7.98698C10.5026 9.01365 9.6826 9.83366 8.66927 9.83366ZM1.83594 8.83366H8.66927C9.12927 8.83366 9.5026 8.46033 9.5026 8.00033V1.83366H6.12927C6.36261 2.26699 6.48927 2.75367 6.5026 3.26034C6.51594 3.84034 6.36926 4.41366 6.07593 4.91366C5.91593 5.20032 5.69593 5.47367 5.45593 5.67367C4.9226 6.18033 4.18926 6.48033 3.40926 6.50033C2.85593 6.52033 2.30928 6.38033 1.84261 6.12699V8.83366H1.83594Z" fill="#1A73E8"/>
<path d="M12.6693 13.8335H12.0026C11.7293 13.8335 11.5026 13.6068 11.5026 13.3335C11.5026 12.8735 11.1293 12.5002 10.6693 12.5002C10.2093 12.5002 9.83594 12.8735 9.83594 13.3335C9.83594 13.6068 9.60927 13.8335 9.33594 13.8335H6.66927C6.39594 13.8335 6.16927 13.6068 6.16927 13.3335C6.16927 12.8735 5.79594 12.5002 5.33594 12.5002C4.87594 12.5002 4.5026 12.8735 4.5026 13.3335C4.5026 13.6068 4.27594 13.8335 4.0026 13.8335H3.33594C1.95594 13.8335 0.835938 12.7135 0.835938 11.3335V9.3335C0.835938 9.06016 1.0626 8.8335 1.33594 8.8335H8.66927C9.12927 8.8335 9.5026 8.46016 9.5026 8.00016V3.3335C9.5026 3.06016 9.72927 2.8335 10.0026 2.8335H11.2293C11.8893 2.8335 12.4959 3.18684 12.8226 3.76017L13.9626 5.7535C14.0493 5.90683 14.0493 6.10017 13.9626 6.2535C13.8759 6.40683 13.7093 6.50016 13.5293 6.50016H12.6693C12.5759 6.50016 12.5026 6.5735 12.5026 6.66683V8.66683C12.5026 8.76016 12.5759 8.8335 12.6693 8.8335H14.6693C14.9426 8.8335 15.1693 9.06016 15.1693 9.3335V11.3335C15.1693 12.7135 14.0493 13.8335 12.6693 13.8335ZM12.436 12.8335H12.6693C13.4959 12.8335 14.1693 12.1602 14.1693 11.3335V9.8335H12.6693C12.0293 9.8335 11.5026 9.30683 11.5026 8.66683V6.66683C11.5026 6.02683 12.0226 5.50016 12.6693 5.50016L11.9559 4.2535C11.8093 3.9935 11.5293 3.8335 11.2293 3.8335H10.5026V8.00016C10.5026 9.0135 9.6826 9.8335 8.66927 9.8335H1.83594V11.3335C1.83594 12.1602 2.50927 12.8335 3.33594 12.8335H3.56925C3.78925 12.0668 4.49594 11.5002 5.33594 11.5002C6.17594 11.5002 6.88262 12.0668 7.10262 12.8335H8.90926C9.12926 12.0668 9.83594 11.5002 10.6759 11.5002C11.5159 11.5002 12.216 12.0668 12.436 12.8335Z" fill="#1A73E8"/>
<path d="M5.33333 15.1667C4.32 15.1667 3.5 14.3467 3.5 13.3333C3.5 12.32 4.32 11.5 5.33333 11.5C6.34667 11.5 7.16667 12.32 7.16667 13.3333C7.16667 14.3467 6.34667 15.1667 5.33333 15.1667ZM5.33333 12.5C4.87333 12.5 4.5 12.8733 4.5 13.3333C4.5 13.7933 4.87333 14.1667 5.33333 14.1667C5.79333 14.1667 6.16667 13.7933 6.16667 13.3333C6.16667 12.8733 5.79333 12.5 5.33333 12.5Z" fill="#1A73E8"/>
<path d="M10.6693 15.1667C9.65594 15.1667 8.83594 14.3467 8.83594 13.3333C8.83594 12.32 9.65594 11.5 10.6693 11.5C11.6826 11.5 12.5026 12.32 12.5026 13.3333C12.5026 14.3467 11.6826 15.1667 10.6693 15.1667ZM10.6693 12.5C10.2093 12.5 9.83594 12.8733 9.83594 13.3333C9.83594 13.7933 10.2093 14.1667 10.6693 14.1667C11.1293 14.1667 11.5026 13.7933 11.5026 13.3333C11.5026 12.8733 11.1293 12.5 10.6693 12.5Z" fill="#1A73E8"/>
<path d="M14.6667 9.83333H12.6667C12.0267 9.83333 11.5 9.30667 11.5 8.66667V6.66667C11.5 6.02667 12.0267 5.5 12.6667 5.5H13.5267C13.7067 5.5 13.8733 5.59334 13.96 5.75334L15.1 7.75334C15.14 7.82667 15.1667 7.91333 15.1667 8V9.33333C15.1667 9.60667 14.94 9.83333 14.6667 9.83333ZM12.6667 6.5C12.5733 6.5 12.5 6.57333 12.5 6.66667V8.66667C12.5 8.76 12.5733 8.83333 12.6667 8.83333H14.1667V8.13334L13.2333 6.5H12.6667Z" fill="#1A73E8"/>
<path d="M3.33073 6.49984C2.22406 6.49984 1.18406 5.91317 0.624064 4.95984C0.324064 4.47984 0.164062 3.91317 0.164062 3.33317C0.164062 2.35984 0.597415 1.45982 1.35075 0.859823C1.91075 0.413156 2.6174 0.166504 3.33073 0.166504C5.0774 0.166504 6.4974 1.5865 6.4974 3.33317C6.4974 3.91317 6.33739 4.47985 6.03739 4.96651C5.87073 5.24651 5.65739 5.49984 5.40405 5.71318C4.85072 6.21984 4.11073 6.49984 3.33073 6.49984ZM3.33073 1.1665C2.8374 1.1665 2.37071 1.33315 1.97738 1.64648C1.46404 2.05315 1.16406 2.67317 1.16406 3.33317C1.16406 3.7265 1.27071 4.11316 1.47738 4.44649C1.86404 5.09983 2.5774 5.49984 3.33073 5.49984C3.8574 5.49984 4.36407 5.30651 4.75073 4.95984C4.92407 4.81317 5.07074 4.63983 5.17741 4.45317C5.39074 4.11317 5.4974 3.7265 5.4974 3.33317C5.4974 2.13984 4.52406 1.1665 3.33073 1.1665Z" fill="#1A73E8"/>
<path d="M4.04563 4.52655C3.91897 4.52655 3.79228 4.4799 3.69228 4.3799L2.28563 2.97325C2.09229 2.77991 2.09229 2.45992 2.28563 2.26658C2.47896 2.07325 2.79896 2.07325 2.99229 2.26658L4.39895 3.67324C4.59228 3.86657 4.59228 4.18657 4.39895 4.3799C4.29895 4.4799 4.1723 4.52655 4.04563 4.52655Z" fill="#1A73E8"/>
<path d="M2.6155 4.5471C2.48883 4.5471 2.36219 4.50041 2.26219 4.40041C2.06885 4.20708 2.06885 3.88708 2.26219 3.69375L3.66884 2.28709C3.86218 2.09376 4.18218 2.09376 4.37551 2.28709C4.56884 2.48042 4.56884 2.80042 4.37551 2.99375L2.96885 4.40041C2.86885 4.50041 2.74217 4.5471 2.6155 4.5471Z" fill="#1A73E8"/>
</svg>
