<svg width="48" height="48" viewBox="0 0 48 48" fill="none" xmlns="http://www.w3.org/2000/svg">
<path d="M37.0816 8.23969L26.0816 4.11969C24.9416 3.69969 23.0816 3.69969 21.9416 4.11969L10.9416 8.23969C8.82156 9.03969 7.10156 11.5197 7.10156 13.7797V29.9797C7.10156 31.5997 8.16156 33.7397 9.46156 34.6997L20.4616 42.9197C22.4016 44.3797 25.5816 44.3797 27.5216 42.9197L38.5216 34.6997C39.8216 33.7197 40.8816 31.5997 40.8816 29.9797V13.7797C40.9016 11.5197 39.1816 9.03969 37.0816 8.23969ZM30.9616 19.4397L22.3616 28.0397C22.0616 28.3397 21.6816 28.4797 21.3016 28.4797C20.9216 28.4797 20.5416 28.3397 20.2416 28.0397L17.0416 24.7997C16.4616 24.2197 16.4616 23.2597 17.0416 22.6797C17.6216 22.0997 18.5816 22.0997 19.1616 22.6797L21.3216 24.8397L28.8616 17.2997C29.4416 16.7197 30.4016 16.7197 30.9816 17.2997C31.5616 17.8797 31.5616 18.8597 30.9616 19.4397Z" fill="#1A73E8"/>
</svg>
