<svg width="48" height="48" viewBox="0 0 48 48" fill="none" xmlns="http://www.w3.org/2000/svg">
<path d="M43.1178 21.4801L40.3978 18.3201C39.8778 17.7201 39.4578 16.6001 39.4578 15.8001V12.4001C39.4578 10.2801 37.7178 8.54012 35.5978 8.54012H32.1978C31.4178 8.54012 30.2778 8.12012 29.6778 7.60012L26.5178 4.88012C25.1378 3.70012 22.8778 3.70012 21.4778 4.88012L18.3378 7.62012C17.7378 8.12012 16.5978 8.54012 15.8178 8.54012H12.3578C10.2378 8.54012 8.49781 10.2801 8.49781 12.4001V15.8201C8.49781 16.6001 8.07781 17.7201 7.57781 18.3201L4.87781 21.5001C3.71781 22.8801 3.71781 25.1201 4.87781 26.5001L7.57781 29.6801C8.07781 30.2801 8.49781 31.4001 8.49781 32.1801V35.6001C8.49781 37.7201 10.2378 39.4601 12.3578 39.4601H15.8178C16.5978 39.4601 17.7378 39.8801 18.3378 40.4001L21.4978 43.1201C22.8778 44.3001 25.1378 44.3001 26.5378 43.1201L29.6978 40.4001C30.2978 39.8801 31.4178 39.4601 32.2178 39.4601H35.6178C37.7378 39.4601 39.4778 37.7201 39.4778 35.6001V32.2001C39.4778 31.4201 39.8978 30.2801 40.4178 29.6801L43.1378 26.5201C44.2978 25.1401 44.2978 22.8601 43.1178 21.4801ZM32.3178 20.2201L22.6578 29.8801C22.3778 30.1601 21.9978 30.3201 21.5978 30.3201C21.1978 30.3201 20.8178 30.1601 20.5378 29.8801L15.6978 25.0401C15.1178 24.4601 15.1178 23.5001 15.6978 22.9201C16.2778 22.3401 17.2378 22.3401 17.8178 22.9201L21.5978 26.7001L30.1978 18.1001C30.7778 17.5201 31.7378 17.5201 32.3178 18.1001C32.8978 18.6801 32.8978 19.6401 32.3178 20.2201Z" fill="#1A73E8"/>
</svg>
