<svg width="48" height="48" viewBox="0 0 48 48" fill="none" xmlns="http://www.w3.org/2000/svg">
<path d="M17.7561 9.19994C16.1561 2.27994 5.73614 2.25994 4.13614 9.19994C3.19614 13.2599 5.77614 16.6999 8.01614 18.8399C9.65614 20.3799 12.2361 20.3799 13.8761 18.8399C16.1161 16.6999 18.6761 13.2599 17.7561 9.19994ZM11.0161 12.3999C9.91614 12.3999 9.01614 11.4999 9.01614 10.3999C9.01614 9.29994 9.89614 8.39994 10.9961 8.39994H11.0161C12.1361 8.39994 13.0161 9.29994 13.0161 10.3999C13.0161 11.4999 12.1361 12.3999 11.0161 12.3999Z" fill="#1A73E8"/>
<path d="M43.8239 33.1999C42.2239 26.2799 31.7639 26.2599 30.1439 33.1999C29.2039 37.2599 31.7839 40.6999 34.0439 42.8399C35.6839 44.3799 38.2839 44.3799 39.9239 42.8399C42.1839 40.6999 44.7639 37.2599 43.8239 33.1999ZM37.0639 36.3999C35.9639 36.3999 35.0639 35.4999 35.0639 34.3999C35.0639 33.2999 35.9439 32.3999 37.0439 32.3999H37.0639C38.1639 32.3999 39.0639 33.2999 39.0639 34.3999C39.0639 35.4999 38.1639 36.3999 37.0639 36.3999Z" fill="#1A73E8"/>
<path d="M24.0028 39.5H18.6428C16.3228 39.5 14.3028 38.1 13.5028 35.94C12.6828 33.78 13.2828 31.4 15.0228 29.86L31.0028 15.88C31.9628 15.04 31.9828 13.9 31.7028 13.12C31.4028 12.34 30.6428 11.5 29.3628 11.5H24.0028C23.1828 11.5 22.5028 10.82 22.5028 10C22.5028 9.18 23.1828 8.5 24.0028 8.5H29.3628C31.6828 8.5 33.7028 9.9 34.5028 12.06C35.3228 14.22 34.7228 16.6 32.9828 18.14L17.0028 32.12C16.0428 32.96 16.0228 34.1 16.3028 34.88C16.6028 35.66 17.3628 36.5 18.6428 36.5H24.0028C24.8228 36.5 25.5028 37.18 25.5028 38C25.5028 38.82 24.8228 39.5 24.0028 39.5Z" fill="#1A73E8"/>
</svg>
